<?xml version="1.0" standalone="no"?>
<!DOCTYPE svg PUBLIC "-//W3C//DTD SVG 20010904//EN"
 "http://www.w3.org/TR/2001/REC-SVG-20010904/DTD/svg10.dtd">
<svg version="1.0" xmlns="http://www.w3.org/2000/svg"
 width="500.000000pt" height="500.000000pt" viewBox="0 0 500.000000 500.000000"
 preserveAspectRatio="xMidYMid meet">
<metadata>
Created by potrace 1.16, written by Peter Selinger 2001-2019
</metadata>
<g transform="translate(0.000000,500.000000) scale(0.100000,-0.100000)"
fill="#000000" stroke="none">
<path d="M0 2500 l0 -2500 2500 0 2500 0 0 2500 0 2500 -2500 0 -2500 0 0
-2500z m1040 138 c-1 -27 -2 -30 -11 -15 -7 12 -23 17 -59 17 l-50 0 0 -134
c0 -139 3 -148 45 -159 11 -2 -23 -5 -75 -5 -72 -1 -89 2 -70 9 13 6 28 15 32
22 4 7 8 69 8 140 l0 127 -55 0 c-48 0 -57 -3 -65 -22 l-9 -23 0 22 c-2 52 0
53 160 53 l149 0 0 -32z m276 -1 c32 -37 31 -83 -1 -117 l-25 -26 41 -65 c22
-35 48 -70 57 -76 14 -12 13 -13 -6 -13 -41 0 -73 24 -112 87 -32 50 -46 63
-65 63 -24 0 -25 -3 -25 -60 0 -59 1 -61 33 -75 31 -14 29 -14 -53 -14 -68 0
-81 2 -62 11 21 11 22 16 22 149 0 131 -1 139 -22 154 -22 15 -17 16 85 13
105 -3 110 -4 133 -31z m359 -116 c36 -101 59 -149 76 -162 24 -18 24 -19 -61
-17 -47 0 -75 3 -63 5 38 7 42 24 20 81 l-20 52 -49 0 c-47 0 -50 -2 -64 -35
-23 -56 -22 -77 6 -92 23 -12 20 -13 -37 -13 l-62 0 23 23 c14 14 41 78 71
166 l47 142 31 -3 c30 -3 32 -6 82 -147z m243 137 c-16 -5 -28 -15 -28 -22 0
-16 78 -208 88 -218 7 -7 75 165 84 211 2 8 -8 20 -22 28 -23 12 -20 13 40 13
60 0 63 -1 43 -15 -12 -8 -35 -51 -52 -97 -18 -46 -43 -114 -57 -151 -23 -61
-29 -68 -51 -65 -22 3 -32 21 -84 148 -33 80 -69 153 -81 163 -20 16 -17 17
63 16 69 0 79 -2 57 -11z m491 -30 c-1 -35 -2 -38 -8 -18 -6 22 -13 25 -64 28
l-57 3 0 -61 0 -60 43 0 c24 0 48 5 55 12 9 9 12 3 12 -27 -1 -32 -3 -37 -11
-22 -7 12 -23 17 -55 17 l-45 0 3 -62 3 -63 60 0 c53 0 61 3 72 25 13 24 13
23 11 -15 l-3 -40 -140 -1 c-77 -1 -128 1 -113 3 45 7 49 21 46 164 -3 131 -3
134 -28 146 -21 11 -8 13 98 13 l122 0 -1 -42z m214 30 l-33 -11 0 -138 0
-139 57 0 c45 0 62 5 81 23 l24 22 -18 -37 -18 -38 -125 0 -126 0 33 20 32 20
0 122 c0 68 -4 128 -8 133 -4 6 -18 16 -32 22 -21 10 -9 12 70 11 80 0 90 -2
63 -10z m596 -25 c0 -33 -1 -35 -9 -15 -8 19 -17 22 -60 22 l-50 0 0 -134 c0
-139 3 -148 45 -159 11 -2 -23 -5 -75 -5 -72 -1 -89 2 -70 9 13 6 28 15 32 22
4 7 8 69 8 140 l0 127 -55 0 c-48 0 -57 -3 -65 -22 l-9 -23 0 22 c-2 52 0 53
160 53 l149 0 -1 -37z m277 4 c32 -37 31 -83 -1 -117 l-25 -26 41 -65 c22 -35
48 -70 57 -76 14 -12 13 -13 -6 -13 -41 0 -73 24 -112 87 -32 50 -46 63 -65
63 -24 0 -25 -3 -25 -60 0 -59 1 -61 33 -75 31 -14 29 -14 -53 -14 -68 0 -81
2 -62 11 21 11 22 16 22 149 0 131 -1 139 -22 154 -22 15 -17 16 85 13 105 -3
110 -4 133 -31z m354 9 c0 -13 3 -33 6 -43 3 -10 -2 -6 -11 10 -14 24 -22 27
-65 27 l-50 0 0 -60 0 -60 38 0 c41 0 56 7 65 30 3 8 6 -12 6 -45 1 -55 0 -58
-12 -35 -10 20 -21 26 -55 28 l-42 3 0 -65 0 -66 60 0 c59 0 61 1 76 33 12 24
14 26 10 7 -3 -14 -6 -35 -6 -47 0 -23 -1 -23 -137 -22 -100 1 -129 3 -107 10
39 11 44 27 44 154 0 119 -5 139 -33 153 -17 8 6 11 96 11 l117 1 0 -24z m200
11 c-22 -11 -25 -20 -28 -71 -2 -32 2 -64 7 -69 14 -14 71 39 97 90 19 34 19
35 0 49 -18 13 -12 14 55 13 63 -1 69 -2 41 -10 -30 -9 -79 -63 -114 -127 -11
-21 -10 -26 8 -40 11 -10 42 -43 68 -75 30 -35 60 -61 80 -66 24 -7 11 -9 -59
-9 -49 0 -82 2 -72 5 28 7 20 28 -38 89 -64 68 -78 64 -73 -17 3 -46 7 -55 28
-66 22 -11 16 -13 -55 -12 -65 0 -76 2 -57 11 21 11 22 16 22 153 0 137 -1
142 -22 153 -19 9 -8 11 57 11 71 1 77 -1 55 -12z m-3404 -387 l44 -40 502 0
c277 0 1092 -5 1813 -10 l1310 -9 43 42 43 42 51 -53 51 -54 -51 -51 -52 -51
-42 41 -43 41 -1814 12 -1814 12 -36 -36 c-20 -20 -44 -36 -53 -36 -8 0 -35
21 -58 46 l-42 46 48 49 c27 27 50 49 53 49 2 0 23 -18 47 -40z"/>
</g>
</svg>
